<svg width="74" height="104" fill="none" xmlns="http://www.w3.org/2000/svg"><g clip-path="url(#clip0)"><path d="M36.714 103.737L6.798 95.405.13 20.387h73.255l-6.673 75.007-30 8.343z" fill="#fff"/><path d="M61 90.617l5.702-64.097H36.76v70.84L61 90.617zM15.414 54.344l.822 9.2H36.76v-9.2H15.414zM13.763 35.72l.833 9.201H36.76v-9.2H13.763zm22.996 42.52l-.04.01-10.214-2.766-.653-7.338h-9.206l1.285 14.446 18.785 5.232.043-.011V78.24z" fill="#212121"/><path d="M17.371 0h11.107v4.66h-6.462v4.66h6.463v4.66H17.37V0zM30.7 0h11.107v4.052h-6.462v.81h6.462v9.32H30.7V9.929h6.463v-.81H30.7V0zm13.329 0h11.107v4.052h-6.462v.81h6.462v9.32H44.03V9.929h6.462v-.81H44.03V0zm14.015 54.344L59.7 35.72H36.727v9.201H49.65l-.835 9.422H36.727v9.2H48.02l-1.065 11.933-10.228 2.77v9.572l18.8-5.228.138-1.554 2.156-24.223.223-2.47z" fill="#fff"/></g><defs><clipPath id="clip0"><path fill="#fff" d="M0 0h73.517v104H0z"/></clipPath></defs></svg>