<svg width="74" height="104" fill="none" xmlns="http://www.w3.org/2000/svg"><g clip-path="url(#clip0)"><path d="M73.575 20.387l-6.692 75.007-30.077 8.343-29.994-8.332L.128 20.387h73.447z" fill="#fff"/><path d="M36.851 97.36l24.304-6.743 5.718-64.097H36.85v70.84z" fill="#212121"/><path d="M23.844 44.922H36.85v-9.2H13.795l.22 2.468 2.26 25.355h20.576v-9.201H24.684l-.84-9.422zm2.072 23.223h-9.23l1.288 14.446 18.835 5.232.042-.011v-9.573l-.04.01-10.24-2.766-.655-7.338z" fill="#212121"/><path d="M6.961 0h4.673v4.62h4.274V0h4.673v13.989H15.91V9.305h-4.275v4.684H6.962V0zm19.765 4.64h-4.113V0h12.902v4.64h-4.116v9.349h-4.672v-9.35h-.001zM37.562 0h4.873l2.997 4.915L48.426 0H53.3v13.989h-4.654V7.055l-3.214 4.974h-.081l-3.217-4.974v6.934h-4.572V0zm18.063 0H60.3v9.365h6.571v4.624H55.625V0zM36.82 63.544h11.322l-1.068 11.933-10.255 2.77v9.572l18.85-5.228.138-1.554 2.161-24.223.224-2.47H36.82v9.2zm0-18.644v.022h22.21l.183-2.068.42-4.664.22-2.469H36.82V44.9z" fill="#fff"/></g><defs><clipPath id="clip0"><path fill="#fff" d="M0 0h73.709v104H0z"/></clipPath></defs></svg>