<svg width="104" height="104" fill="none" xmlns="http://www.w3.org/2000/svg"><path d="M0 0h104v104H0V0z" fill="#fff"/><path d="M27.346 86.91l7.958-4.816c1.536 2.722 2.932 5.025 6.283 5.025 3.211 0 5.236-1.256 5.236-6.142v-33.23h9.773v33.368c0 10.122-5.933 14.73-14.59 14.73-7.819 0-12.357-4.05-14.66-8.936v.001zm34.559-1.047l7.957-4.608c2.095 3.421 4.818 5.934 9.635 5.934 4.05 0 6.632-2.024 6.632-4.817 0-3.35-2.653-4.538-7.121-6.492l-2.443-1.048c-7.051-3-11.728-6.77-11.728-14.73 0-7.33 5.584-12.915 14.311-12.915 6.213 0 10.681 2.165 13.892 7.82l-7.61 4.887c-1.676-3.002-3.49-4.189-6.282-4.189-2.863 0-4.678 1.815-4.678 4.189 0 2.931 1.815 4.119 6.004 5.934l2.443 1.047c8.308 3.56 12.985 7.19 12.985 15.358 0 8.797-6.911 13.613-16.196 13.613-9.075 0-14.94-4.328-17.802-9.983" fill="#212121"/></svg>