<svg width="92" height="104" fill="none" xmlns="http://www.w3.org/2000/svg"><g clip-path="url(#clip0)" fill="#fff"><path d="M91.27 52.01c0-6.047-7.571-11.777-19.18-15.33 2.679-11.832 1.488-21.246-3.758-24.26-1.21-.707-2.623-1.041-4.167-1.041v4.148c.855 0 1.544.168 2.12.484 2.53 1.45 3.628 6.976 2.772 14.083-.204 1.749-.54 3.59-.948 5.47-3.647-.894-7.628-1.582-11.814-2.028-2.511-3.442-5.116-6.568-7.739-9.302 6.065-5.637 11.758-8.726 15.627-8.726V11.36c-5.116 0-11.813 3.646-18.585 9.971-6.772-6.288-13.47-9.897-18.585-9.897v4.149c3.85 0 9.562 3.07 15.627 8.67a87.864 87.864 0 00-7.683 9.283c-4.205.446-8.186 1.134-11.832 2.046a56.108 56.108 0 01-.968-5.395c-.874-7.107.205-12.632 2.716-14.102.558-.335 1.284-.484 2.14-.484v-4.148c-1.563 0-2.977.335-4.205 1.042-5.227 3.014-6.4 12.409-3.702 24.203C7.535 40.27 0 45.982 0 52.01c0 6.047 7.572 11.776 19.18 15.33-2.678 11.832-1.488 21.245 3.759 24.26 1.209.706 2.623 1.041 4.185 1.041 5.116 0 11.814-3.646 18.586-9.972 6.771 6.288 13.469 9.898 18.585 9.898 1.563 0 2.977-.335 4.204-1.042 5.228-3.014 6.4-12.409 3.703-24.204 11.534-3.553 19.068-9.283 19.068-15.31zM67.048 39.6a83.772 83.772 0 01-2.511 7.349 88.06 88.06 0 00-2.437-4.465 100.682 100.682 0 00-2.68-4.353c2.642.39 5.191.874 7.628 1.47zm-8.52 19.814c-1.451 2.511-2.94 4.892-4.484 7.106a96.778 96.778 0 01-8.409.372c-2.809 0-5.618-.13-8.371-.353a102.548 102.548 0 01-4.503-7.07 96.907 96.907 0 01-3.87-7.404 97.031 97.031 0 013.852-7.423c1.45-2.511 2.94-4.893 4.483-7.107a96.778 96.778 0 018.41-.372c2.808 0 5.618.13 8.37.354a102.575 102.575 0 014.503 7.07 96.96 96.96 0 013.87 7.404 104.228 104.228 0 01-3.851 7.423zm6.009-2.419a79.715 79.715 0 012.567 7.404 83.506 83.506 0 01-7.665 1.489 102.798 102.798 0 002.68-4.41 105.694 105.694 0 002.418-4.483zm-18.865 19.85a76.697 76.697 0 01-5.171-5.953c1.674.075 3.385.13 5.116.13 1.748 0 3.479-.037 5.172-.13a72.597 72.597 0 01-5.117 5.953zm-13.84-10.957a83.958 83.958 0 01-7.628-1.47 83.772 83.772 0 012.511-7.349 88.06 88.06 0 002.437 4.465 123.24 123.24 0 002.68 4.354zm13.747-38.715a76.713 76.713 0 015.172 5.953c-1.674-.074-3.386-.13-5.116-.13-1.749 0-3.479.037-5.172.13a72.63 72.63 0 015.116-5.953zM31.813 38.131a102.798 102.798 0 00-5.098 8.874 79.715 79.715 0 01-2.567-7.405 90.36 90.36 0 017.665-1.47zM14.976 61.423C8.39 58.613 4.13 54.93 4.13 52.009c0-2.92 4.26-6.623 10.846-9.413 1.6-.689 3.349-1.303 5.153-1.88 1.06 3.647 2.456 7.442 4.186 11.33-1.711 3.87-3.088 7.647-4.13 11.274a56.545 56.545 0 01-5.209-1.897zm10.009 26.585c-2.53-1.451-3.628-6.977-2.772-14.084.205-1.748.54-3.59.949-5.469 3.646.893 7.627 1.581 11.813 2.028 2.512 3.441 5.116 6.567 7.74 9.302-6.065 5.637-11.758 8.725-15.628 8.725-.837-.019-1.544-.186-2.102-.502zm44.128-14.176c.875 7.106-.204 12.632-2.716 14.101-.558.335-1.284.484-2.14.484-3.85 0-9.562-3.07-15.627-8.67a87.854 87.854 0 007.684-9.283c4.204-.446 8.185-1.135 11.832-2.046.428 1.879.763 3.683.967 5.413zm7.163-12.41c-1.6.69-3.349 1.303-5.153 1.88-1.061-3.647-2.456-7.442-4.186-11.33 1.711-3.87 3.088-7.646 4.13-11.274 1.841.577 3.59 1.21 5.227 1.898 6.586 2.809 10.846 6.492 10.846 9.413-.018 2.921-4.278 6.623-10.864 9.414z"/><path d="M45.617 60.511a8.502 8.502 0 100-17.004 8.502 8.502 0 000 17.004z"/></g><defs><clipPath id="clip0"><path fill="#fff" d="M0 0h91.27v104H0z"/></clipPath></defs></svg>