<svg width="139" height="104" fill="none" xmlns="http://www.w3.org/2000/svg"><path d="M119.055 59.746c-4.836.027-9.025 1.191-12.537 2.925-1.297-2.573-2.594-4.821-2.81-6.5-.244-1.95-.541-3.142-.244-5.47.297-2.33 1.648-5.634 1.648-5.905-.027-.244-.297-1.436-3.08-1.463-2.783-.027-5.188.542-5.458 1.273-.27.731-.81 2.41-1.162 4.144-.487 2.546-5.567 11.565-8.458 16.304-.945-1.842-1.756-3.467-1.918-4.767-.243-1.95-.541-3.141-.243-5.47.297-2.33 1.648-5.634 1.648-5.904-.027-.244-.297-1.436-3.08-1.463-2.784-.027-5.188.542-5.459 1.273-.27.731-.567 2.465-1.162 4.144-.567 1.679-7.322 16.737-9.079 20.664a83.706 83.706 0 01-2.243 4.686c-.567 1.083-.027.08-.08.19-.487.92-.757 1.435-.757 1.435v.027c-.379.677-.784 1.327-.973 1.327-.136 0-.406-1.815.054-4.306 1-5.228 3.431-13.38 3.405-13.677 0-.136.459-1.571-1.568-2.302-1.972-.732-2.675.487-2.837.487-.162 0-.297.433-.297.433s2.188-9.18-4.189-9.18c-3.999 0-9.511 4.36-12.24 8.341-1.73.948-5.404 2.952-9.295 5.092-1.487.812-3.027 1.68-4.486 2.465l-.297-.326c-7.728-8.26-22.022-14.11-21.428-25.215.216-4.035 1.622-14.679 27.454-27.57 21.158-10.563 38.1-7.665 41.045-1.22 4.188 9.21-9.052 26.326-31.047 28.79-8.377.948-12.781-2.302-13.889-3.52-1.162-1.273-1.324-1.328-1.756-1.084-.703.38-.27 1.517 0 2.194.648 1.706 3.35 4.74 7.944 6.256 4.026 1.327 13.862 2.059 25.751-2.546 13.322-5.173 23.725-19.527 20.671-31.525C83.496.57 63.283-3.44 44.18 3.358c-11.376 4.063-23.698 10.4-32.56 18.715C1.08 31.93-.595 40.543.107 44.119c2.46 12.756 19.996 21.07 27.021 27.219-.351.189-.675.378-.972.541-3.513 1.733-16.889 8.748-20.24 16.169-3.782 8.395.595 14.435 3.513 15.248 9.026 2.519 18.267-2.004 23.266-9.452 4.971-7.448 4.377-17.117 2.08-21.531l-.081-.163 2.756-1.625a165.792 165.792 0 015.08-2.871c-.864 2.356-1.486 5.146-1.81 9.208-.378 4.767 1.567 10.942 4.134 13.38 1.135 1.055 2.486 1.083 3.324 1.083 2.972 0 4.323-2.465 5.81-5.417 1.837-3.602 3.458-7.773 3.458-7.773S55.42 89.43 60.96 89.43c2.026 0 4.053-2.627 4.972-3.981v.027s.054-.081.162-.271a9.72 9.72 0 00.324-.514v-.055c.81-1.408 2.621-4.63 5.323-9.966 3.486-6.88 6.837-15.492 6.837-15.492s.324 2.113 1.324 5.58c.594 2.058 1.89 4.305 2.89 6.5a106.556 106.556 0 01-1.296 1.787l.027.027a76.869 76.869 0 01-2.135 2.709c-2.756 3.304-6.053 7.069-6.485 8.152-.513 1.272-.405 2.22.595 2.979.73.542 2.026.65 3.404.542 2.486-.163 4.216-.786 5.08-1.165a17.58 17.58 0 004.378-2.302c2.702-2.004 4.35-4.848 4.188-8.64-.081-2.085-.757-4.143-1.594-6.093.243-.352.487-.705.73-1.084 4.269-6.256 7.565-13.135 7.565-13.135s.325 2.112 1.324 5.58c.514 1.76 1.541 3.683 2.459 5.578-3.999 3.278-6.512 7.07-7.376 9.56-1.595 4.605-.352 6.69 2 7.178 1.053.217 2.566-.27 3.7-.758a16.763 16.763 0 004.676-2.41c2.702-2.005 5.296-4.794 5.161-8.56-.081-1.732-.541-3.439-1.162-5.064 3.404-1.408 7.809-2.22 13.402-1.543 12.025 1.408 14.403 8.937 13.943 12.079-.459 3.142-2.972 4.875-3.81 5.416-.837.515-1.108.705-1.027 1.084.108.569.487.541 1.216.433 1-.162 6.323-2.573 6.539-8.368.325-7.45-6.728-15.574-19.239-15.493zM26.319 91.08c-3.972 4.36-9.566 6.013-11.944 4.604-2.567-1.49-1.567-7.908 3.324-12.54 2.972-2.816 6.836-5.416 9.376-7.014.568-.352 1.432-.866 2.46-1.49.161-.107.27-.162.27-.162.189-.108.405-.244.62-.379 1.811 6.608.082 12.404-4.106 16.981zm29.048-19.798c-1.379 3.386-4.297 12.08-6.053 11.592-1.514-.406-2.432-6.987-.298-13.487 1.081-3.278 3.378-7.178 4.729-8.695 2.189-2.437 4.567-3.25 5.161-2.247.703 1.3-2.675 10.725-3.54 12.837zm23.967 11.484c-.594.298-1.135.514-1.378.352-.189-.108.243-.514.243-.514s3-3.224 4.188-4.713c.676-.866 1.487-1.868 2.351-3.006v.325c0 3.9-3.728 6.5-5.404 7.556zm18.483-4.225c-.433-.325-.378-1.327 1.08-4.47.568-1.245 1.865-3.33 4.108-5.307.27.812.432 1.597.405 2.329-.027 4.875-3.486 6.69-5.593 7.448z" fill="#fff"/></svg>