<svg width="106" height="104" fill="none" xmlns="http://www.w3.org/2000/svg"><path d="M3.027 37.177s-2.507-1.807.501-4.22l7.01-6.267s2.005-2.11 4.126-.272l64.68 48.97v23.483s-.03 3.687-4.763 3.28L3.027 37.177z" fill="#fff"/><path d="M19.698 52.313L3.027 67.47s-1.713 1.275 0 3.552l7.74 7.04s1.839 1.975 4.555-.27l17.674-13.403-13.298-12.075z" fill="#9F9F9F"/><path d="M48.968 52.439l30.575-23.347-.198-23.357S78.039.637 73.683 3.29L32.996 40.321 48.968 52.44z" fill="#D0D0D0"/><path d="M74.582 102.183c1.775 1.817 3.927 1.222 3.927 1.222l23.827-11.742c3.051-2.078 2.622-4.658 2.622-4.658V16.89c0-3.081-3.154-4.147-3.154-4.147L81.152 2.79c-4.513-2.789-7.469.502-7.469.502s3.802-2.737 5.662 2.444v92.708c0 .637-.136 1.264-.407 1.828-.544 1.097-1.724 2.12-4.555 1.692l.199.22z" fill="#fff"/></svg>